<svg width="145" height="36" viewBox="0 0 145 36" fill="none" xmlns="http://www.w3.org/2000/svg">
<path d="M0 27L2.85526e-06 9L8.99999 14V22.05L16.2001 26.1L23.4 22.05V14L32.4001 9V27L16.2001 36L0 27Z" fill="#192657"/>
<path fill-rule="evenodd" clip-rule="evenodd" d="M4.50001 11.5001L0 9.00002L16.2001 0L32.4001 9.00002L27.9001 11.5001V24.75L16.2001 31.5001L4.5 24.75L4.50001 11.5001ZM27.4126 11.7709L23.4 14V13.95L16.2001 9.89999L8.99999 13.95V14L4.98751 11.7709V24.4731L16.2001 30.9419L27.4126 24.4731V11.7709Z" fill="url(#paint0_linear_4_16)"/>
<path d="M41.0256 25.5775V10.4575H43.8768V22.9855H50.7889V25.5775H41.0256Z" fill="#192657"/>
<path d="M56.9447 25.8799C55.8791 25.8799 54.9215 25.6639 54.0719 25.2318C53.2223 24.7998 52.5527 24.1735 52.0631 23.3527C51.5735 22.5319 51.3287 21.5455 51.3287 20.3935V20.0478C51.3287 18.8959 51.5735 17.9094 52.0631 17.0886C52.5527 16.2679 53.2223 15.6415 54.0719 15.2095C54.9215 14.7774 55.8791 14.5615 56.9447 14.5615C58.0103 14.5615 58.9679 14.7774 59.8175 15.2095C60.6671 15.6415 61.3367 16.2679 61.8263 17.0886C62.3159 17.9094 62.5608 18.8959 62.5608 20.0478V20.3935C62.5608 21.5455 62.3159 22.5319 61.8263 23.3527C61.3367 24.1735 60.6671 24.7998 59.8175 25.2318C58.9679 25.6639 58.0103 25.8799 56.9447 25.8799ZM56.9447 23.4607C57.7799 23.4607 58.4712 23.1943 59.0183 22.6614C59.5656 22.1143 59.8391 21.3366 59.8391 20.3286V20.1127C59.8391 19.1047 59.5656 18.3342 59.0183 17.8015C58.4855 17.2543 57.7943 16.9807 56.9447 16.9807C56.1095 16.9807 55.4183 17.2543 54.8711 17.8015C54.3239 18.3342 54.0503 19.1047 54.0503 20.1127V20.3286C54.0503 21.3366 54.3239 22.1143 54.8711 22.6614C55.4183 23.1943 56.1095 23.4607 56.9447 23.4607Z" fill="#192657"/>
<path d="M63.5826 20.2639V19.9183C63.5826 18.7951 63.8057 17.8375 64.2522 17.0454C64.6985 16.239 65.289 15.627 66.0233 15.2095C66.7722 14.7774 67.5858 14.5615 68.4641 14.5615C69.4434 14.5615 70.185 14.7343 70.6889 15.0799C71.193 15.4254 71.5602 15.7855 71.7905 16.1599H72.1794V14.8638H74.8578V27.4783C74.8578 28.2127 74.6417 28.7958 74.2097 29.2279C73.7777 29.6743 73.2018 29.8975 72.4818 29.8975H65.3105V27.5215H71.5314C71.9345 27.5215 72.1362 27.3055 72.1362 26.8735V24.087H71.7473C71.6033 24.3175 71.4017 24.5551 71.1426 24.7998C70.8833 25.0303 70.5378 25.2246 70.1058 25.3831C69.6738 25.5415 69.1265 25.6207 68.4641 25.6207C67.5858 25.6207 66.7722 25.4118 66.0233 24.9942C65.289 24.5622 64.6985 23.9502 64.2522 23.1583C63.8057 22.3519 63.5826 21.3871 63.5826 20.2639ZM69.2418 23.2447C70.0769 23.2447 70.7754 22.9783 71.337 22.4455C71.8986 21.9127 72.1794 21.1639 72.1794 20.1991V19.9831C72.1794 19.0038 71.8986 18.2551 71.337 17.7367C70.7897 17.2039 70.0914 16.9375 69.2418 16.9375C68.4065 16.9375 67.7081 17.2039 67.1466 17.7367C66.585 18.2551 66.3042 19.0038 66.3042 19.9831V20.1991C66.3042 21.1639 66.585 21.9127 67.1466 22.4455C67.7081 22.9783 68.4065 23.2447 69.2418 23.2447Z" fill="#192657"/>
<path d="M82.0008 25.8799C80.9352 25.8799 79.9776 25.6639 79.128 25.2318C78.2783 24.7998 77.6088 24.1735 77.1192 23.3527C76.6296 22.5319 76.3848 21.5455 76.3848 20.3935V20.0478C76.3848 18.8959 76.6296 17.9094 77.1192 17.0886C77.6088 16.2679 78.2783 15.6415 79.128 15.2095C79.9776 14.7774 80.9352 14.5615 82.0008 14.5615C83.0664 14.5615 84.024 14.7774 84.8736 15.2095C85.7232 15.6415 86.3928 16.2679 86.8824 17.0886C87.372 17.9094 87.6168 18.8959 87.6168 20.0478V20.3935C87.6168 21.5455 87.372 22.5319 86.8824 23.3527C86.3928 24.1735 85.7232 24.7998 84.8736 25.2318C84.024 25.6639 83.0664 25.8799 82.0008 25.8799ZM82.0008 23.4607C82.836 23.4607 83.5272 23.1943 84.0744 22.6614C84.6216 22.1143 84.8952 21.3366 84.8952 20.3286V20.1127C84.8952 19.1047 84.6216 18.3342 84.0744 17.8015C83.5416 17.2543 82.8504 16.9807 82.0008 16.9807C81.1656 16.9807 80.4744 17.2543 79.9272 17.8015C79.38 18.3342 79.1064 19.1047 79.1064 20.1127V20.3286C79.1064 21.3366 79.38 22.1143 79.9272 22.6614C80.4744 23.1943 81.1656 23.4607 82.0008 23.4607Z" fill="#192657"/>
<path d="M89.157 25.5775V14.8638H91.8785V25.5775H89.157ZM90.5177 13.611C90.0281 13.611 89.6105 13.4527 89.2649 13.1358C88.9337 12.819 88.7682 12.4014 88.7682 11.8831C88.7682 11.3647 88.9337 10.947 89.2649 10.6302C89.6105 10.3135 90.0281 10.155 90.5177 10.155C91.0217 10.155 91.4394 10.3135 91.7706 10.6302C92.1018 10.947 92.2673 11.3647 92.2673 11.8831C92.2673 12.4014 92.1018 12.819 91.7706 13.1358C91.4394 13.4527 91.0217 13.611 90.5177 13.611Z" fill="#192657"/>
<path d="M93.9225 29.8975V14.8638H96.6011V16.1599H96.9901C97.2344 15.7423 97.6157 15.3751 98.135 15.0582C98.6533 14.727 99.3948 14.5615 100.36 14.5615C101.224 14.5615 102.023 14.7774 102.757 15.2095C103.492 15.627 104.082 16.2462 104.528 17.0671C104.975 17.8879 105.198 18.8815 105.198 20.0478V20.3935C105.198 21.5598 104.975 22.5535 104.528 23.3742C104.082 24.1951 103.492 24.8215 102.757 25.2535C102.023 25.6711 101.224 25.8799 100.36 25.8799C99.711 25.8799 99.1639 25.8006 98.7175 25.6423C98.2854 25.4983 97.9328 25.3111 97.6598 25.0806C97.4001 24.8359 97.1913 24.5911 97.0332 24.3463H96.6442V29.8975H93.9225ZM99.5385 23.5039C100.388 23.5039 101.087 23.2374 101.634 22.7046C102.195 22.1575 102.476 21.3655 102.476 20.3286V20.1127C102.476 19.0759 102.195 18.291 101.634 17.7582C101.072 17.2111 100.374 16.9375 99.5385 16.9375C98.7031 16.9375 98.0047 17.2111 97.4432 17.7582C96.8818 18.291 96.6011 19.0759 96.6011 20.1127V20.3286C96.6011 21.3655 96.8818 22.1575 97.4432 22.7046C98.0047 23.2374 98.7031 23.5039 99.5385 23.5039Z" fill="#192657"/>
<path d="M111.174 25.8799C109.777 25.8799 108.632 25.5775 107.74 24.9727C106.848 24.3678 106.307 23.5039 106.119 22.3806L108.626 21.7327C108.726 22.2366 108.892 22.6327 109.122 22.9207C109.367 23.2087 109.662 23.4174 110.008 23.5471C110.368 23.6622 110.756 23.7199 111.174 23.7199C111.807 23.7199 112.276 23.6118 112.579 23.3959C112.881 23.1655 113.032 22.8847 113.032 22.5535C113.032 22.2223 112.888 21.9703 112.6 21.7974C112.312 21.6102 111.852 21.4591 111.217 21.3439L110.613 21.2358C109.864 21.0918 109.18 20.8974 108.561 20.6527C107.942 20.3935 107.444 20.0406 107.07 19.5943C106.696 19.1478 106.508 18.5718 106.508 17.8662C106.508 16.8007 106.897 15.9871 107.675 15.4254C108.452 14.8495 109.476 14.5615 110.742 14.5615C111.938 14.5615 112.931 14.8279 113.723 15.3607C114.515 15.8935 115.033 16.5919 115.279 17.4559L112.751 18.2334C112.636 17.6863 112.399 17.2974 112.038 17.0671C111.693 16.8367 111.26 16.7214 110.742 16.7214C110.224 16.7214 109.828 16.815 109.554 17.0022C109.281 17.1751 109.144 17.4199 109.144 17.7367C109.144 18.0823 109.288 18.3414 109.576 18.5143C109.864 18.6726 110.253 18.7951 110.742 18.8815L111.347 18.9895C112.153 19.1335 112.881 19.3278 113.529 19.5726C114.191 19.803 114.709 20.1414 115.084 20.5879C115.473 21.0199 115.668 21.6102 115.668 22.3591C115.668 23.4823 115.257 24.3535 114.435 24.9727C113.63 25.5775 112.542 25.8799 111.174 25.8799Z" fill="#192657"/>
<path d="M121.162 25.7502C120.328 25.7502 119.593 25.563 118.959 25.1887C118.341 24.7998 117.858 24.2671 117.512 23.5903C117.167 22.9135 116.993 22.1358 116.993 21.2575V14.8638H119.715V21.0414C119.715 21.8478 119.91 22.4527 120.299 22.8558C120.701 23.2591 121.27 23.4607 122.005 23.4607C122.84 23.4607 123.488 23.187 123.949 22.6399C124.41 22.0783 124.64 21.3007 124.64 20.3071V14.8638H127.362V25.5775H124.683V24.1735H124.295C124.121 24.5335 123.798 24.8863 123.322 25.2318C122.847 25.5775 122.127 25.7502 121.162 25.7502Z" fill="#192657"/>
<path d="M129.419 25.5775V14.8638H132.096V16.0303H132.485C132.672 15.6702 132.983 15.3607 133.414 15.1014C133.846 14.8279 134.415 14.6911 135.121 14.6911C135.884 14.6911 136.496 14.8423 136.957 15.1446C137.418 15.4326 137.77 15.8142 138.015 16.2894H138.403C138.649 15.8287 138.995 15.4471 139.441 15.1446C139.887 14.8423 140.521 14.6911 141.342 14.6911C142.004 14.6911 142.602 14.8351 143.134 15.1231C143.681 15.3966 144.114 15.8214 144.431 16.3975C144.761 16.959 144.927 17.6718 144.927 18.5359V25.5775H142.205V18.7303C142.205 18.1399 142.055 17.7007 141.752 17.4127C141.449 17.1103 141.025 16.959 140.478 16.959C139.859 16.959 139.376 17.1607 139.03 17.5639C138.699 17.9526 138.534 18.5143 138.534 19.2487V25.5775H135.812V18.7303C135.812 18.1399 135.66 17.7007 135.359 17.4127C135.056 17.1103 134.632 16.959 134.084 16.959C133.465 16.959 132.983 17.1607 132.637 17.5639C132.305 17.9526 132.14 18.5143 132.14 19.2487V25.5775H129.419Z" fill="#192657"/>
<defs>
<linearGradient id="paint0_linear_4_16" x1="4.5" y1="7" x2="28.8001" y2="7" gradientUnits="userSpaceOnUse">
<stop stop-color="#64C2DB"/>
<stop offset="0.307292" stop-color="#7476ED"/>
<stop offset="0.604167" stop-color="#C994DF"/>
<stop offset="1" stop-color="#E56F8C"/>
</linearGradient>
</defs>
</svg>
